<svg width="18" height="18" xmlns="http://www.w3.org/2000/svg"><defs><linearGradient x1="22.565%" y1="100%" x2="77.435%" y2="0%" id="a"><stop stop-color="#1B58F4" offset="0%"/><stop stop-color="#3C70F6" offset="100%"/></linearGradient></defs><path d="M13.5 4a.5.5 0 0 1 .5.5v11a.5.5 0 0 1-.5.5H6a.5.5 0 0 1-.5-.5V15h7a.5.5 0 0 0 .497-.442L13 14.5V4h.5zM12 2.5a.5.5 0 0 1 .5.5v11a.5.5 0 0 1-.5.5H4.5A.5.5 0 0 1 4 14V7.5h3.5a1 1 0 0 0 1-1v-4H12zm-4.5.054V6.5H4.037a.5.5 0 0 1 .087-.141L7.35 2.67a.5.5 0 0 1 .149-.117z" fill="url(#a)" fill-rule="evenodd"/></svg>