<svg width="20" height="20" xmlns="http://www.w3.org/2000/svg"><defs><linearGradient x1="50%" y1="-33.674%" x2="50%" y2="105.955%" id="a"><stop stop-color="#2EDCFF" offset="0%"/><stop stop-color="#00A7C8" offset="100%"/></linearGradient></defs><g transform="translate(1 1)" fill="none" fill-rule="evenodd"><circle fill="url(#a)" cx="9" cy="9" r="9"/><path d="m9.15 5.505 1.01 2.05 2.255.328c.345.052.48.476.231.72l-1.63 1.596.385 2.251a.422.422 0 0 1-.612.446L8.774 11.83l-2.015 1.062a.423.423 0 0 1-.612-.446l.385-2.25-1.63-1.591a.423.423 0 0 1 .231-.721l2.256-.328 1.01-2.05a.417.417 0 0 1 .75 0z" fill="#FFF" fill-rule="nonzero"/></g></svg>