<svg width="20" height="20" xmlns="http://www.w3.org/2000/svg"><defs><linearGradient x1="50%" y1="-33.674%" x2="50%" y2="105.955%" id="a"><stop stop-color="#2EFFDC" offset="0%"/><stop stop-color="#00C8A7" offset="100%"/></linearGradient></defs><g transform="translate(1 1)" fill="none" fill-rule="evenodd"><circle fill="url(#a)" cx="9" cy="9" r="9"/><path d="m9.376 5.246 1.01 2.136 2.255.342c.345.054.48.496.231.751l-1.63 1.663.385 2.346c.057.36-.302.634-.612.465L9 11.837l-2.015 1.107c-.31.168-.668-.105-.612-.465l.385-2.346-1.63-1.658c-.25-.255-.114-.697.231-.751l2.256-.342 1.01-2.136a.41.41 0 0 1 .75 0z" fill="#FFF" fill-rule="nonzero"/></g></svg>